<svg width="356" height="350" viewBox="0 0 356 350" fill="none" xmlns="http://www.w3.org/2000/svg">
<path d="M158.921 0.736774C117.019 5.07592 81.7712 21.4029 52.5932 49.9383C42.0628 60.2346 36.2858 67.2214 28.2417 79.3563C13.2505 102.008 3.37829 130.029 0.526313 158.049C-0.497475 168.64 0.0144189 189.968 1.69636 200.705C7.40032 238.14 25.0241 272.926 51.6426 299.182C61.1492 308.596 67.0725 313.376 78.3342 320.951C138.957 361.548 220.348 358.606 278.777 313.67C313.074 287.341 337.279 247.553 344.592 205.486C349.419 177.906 347.005 145.032 338.303 120.247C335.159 111.348 334.647 104.362 337.426 106.862C337.791 107.23 339.4 107.892 341.009 108.406C342.618 108.921 344.153 109.657 344.373 110.024C344.592 110.392 345.762 110.76 346.932 110.833C349.93 111.054 350.004 109.068 347.225 103.185C346.055 100.611 345.031 98.1102 345.031 97.6689C345.031 97.2277 347.517 96.1245 350.515 95.1684L356 93.4033V90.6822V87.961L350.735 86.1959C347.883 85.2399 345.396 84.0631 345.25 83.6954C345.104 83.3277 347.517 80.0182 350.515 76.4145C353.879 72.4431 356 69.2071 356 68.1774C356 67.2214 355.781 66.4859 355.488 66.4859C355.122 66.4859 351.027 67.3685 346.347 68.4716C341.594 69.5013 337.572 70.2367 337.426 70.0896C337.06 69.7219 336.475 64.7944 335.89 56.9251C335.232 48.6881 334.135 40.0097 333.696 39.2007C332.38 37.1415 330.917 39.3479 327.041 49.35C319.729 68.3245 318.778 70.5309 317.9 70.3103C315.122 69.6483 306.858 62.6616 296.913 52.5859C284.774 40.3039 276.291 33.5378 263.42 25.5949C243.53 13.46 221.957 5.59074 198.775 2.13413C190.731 0.883864 165.722 0.0748698 158.921 0.736774ZM196.582 15.2251C196.582 15.7399 195.558 17.2844 194.388 18.6817C192.852 20.5203 192.048 21.0352 191.463 20.4468C190.878 19.8584 191.097 18.6817 192.121 16.1812C193.51 13.0923 193.803 12.7981 195.119 13.5336C195.923 13.9749 196.582 14.7103 196.582 15.2251ZM178.665 20.3733C181.81 26.0362 182.395 26.6246 182.761 25.1537C183.711 21.8442 183.492 17.2108 182.322 16.7696C181.737 16.4754 181.225 15.887 181.225 15.2987C181.225 14.5632 182.322 14.269 185.247 14.269C188.391 14.269 189.269 14.4897 189.269 15.3722C189.269 16.0341 188.757 16.696 188.172 16.9166C187.368 17.2844 187.075 18.5346 187.075 21.6235C187.075 23.9034 186.856 27.8748 186.636 30.3754C186.198 34.4203 185.978 34.8616 184.516 34.8616C183.126 34.8616 182.029 33.4642 178.958 27.9484C176.837 24.124 175.009 21.0352 174.936 21.1087C174.863 21.1823 174.643 23.4621 174.424 26.1833C174.131 30.1547 174.278 31.1844 175.082 31.1844C175.667 31.1844 176.106 31.8463 176.106 32.6553C176.106 33.9055 175.594 34.1262 172.523 34.1262C168.72 34.1262 167.111 33.023 168.939 31.6256C169.744 31.0373 170.183 28.7574 170.548 23.7563C171.06 17.6521 170.914 16.6225 169.963 16.2547C167.696 15.3722 169.524 13.46 172.303 13.6807C174.79 13.9013 175.155 14.269 178.665 20.3733ZM162.285 15.4458C165.064 16.8431 166.672 20.5203 166.672 25.742C166.746 30.596 165.356 33.0965 161.627 34.641C156.727 36.7002 152.12 34.7881 150.072 29.9341C148.829 26.9923 148.829 21.0352 150.072 18.8288C152.339 14.7103 157.897 13.1659 162.285 15.4458ZM205.503 16.8431C214.717 18.7553 213.986 18.3875 213.474 21.0352C213.109 22.8002 212.523 23.5357 211.353 23.6828C210.11 23.9034 209.745 23.5357 209.745 22.4325C209.745 21.4029 209.306 20.8881 208.428 20.8881C207.331 20.8881 206.893 22.0648 205.796 27.5807C204.626 33.9055 204.626 34.3468 205.796 35.2293C207.843 36.7002 206.308 38.024 203.236 37.4357C198.995 36.7002 198.044 36.3325 198.044 35.2293C198.044 34.7145 198.629 34.1262 199.361 33.9791C200.384 33.6849 201.042 32.1404 201.92 27.4336C202.651 24.0505 203.163 20.8145 203.163 20.2997C203.163 19.0494 201.189 19.1965 200.384 20.5203C199.58 21.9912 197.313 21.1823 197.313 19.4172C197.313 17.2844 198.117 15.7399 199.141 15.7399C199.726 15.7399 202.578 16.2547 205.503 16.8431ZM142.833 19.5643C148.025 23.6828 148.244 32.9494 143.198 36.8473C141.297 38.3918 132.229 40.3039 131.352 39.4214C130.767 38.833 130.767 38.3182 131.425 37.5092C132.156 36.6267 132.01 35.0087 130.767 29.4193C129.889 25.5214 128.865 22.5796 128.5 22.8002C127.768 23.2415 126.672 21.0352 127.33 20.4468C128.134 19.6378 134.862 18.0934 137.787 18.0198C139.835 17.9463 141.443 18.4611 142.833 19.5643ZM228.831 23.4621C231.39 24.4918 233.95 25.8891 234.462 26.551C235.924 28.6103 235.559 31.6992 233.584 33.2436C232.341 34.1997 231.975 34.9351 232.487 35.6706C233.731 37.6563 233.219 40.7452 231.244 42.7309C229.05 44.9372 227.222 44.7902 219.983 42.1425C216.765 40.9658 215.595 40.2304 215.741 39.3478C215.887 38.6859 216.472 38.1711 217.057 38.1711C218.447 38.1711 223.273 25.3743 222.249 24.3447C221.372 23.4621 222.03 21.6235 223.2 21.6235C223.712 21.6235 226.198 22.4325 228.831 23.4621ZM118.189 26.0362C118.847 27.8748 118.774 28.3161 117.677 28.9045C116.799 29.4193 116.068 29.3457 115.556 28.8309C114.971 28.2426 114.167 28.2426 112.631 28.9045C110.583 29.787 110.51 29.9341 111.242 31.9933C112.192 34.4939 112.339 34.4939 115.922 33.023C118.043 32.1404 118.701 32.0669 119.213 32.8023C120.163 34.4203 119.871 34.9351 117.092 36.1119C115.556 36.7002 114.167 37.3621 114.02 37.5092C113.582 37.9505 115.556 42.2161 116.214 42.2161C118.116 42.2161 120.602 40.5981 120.236 39.642C120.017 38.9801 120.456 38.2447 121.26 37.8034C122.503 37.1415 122.869 37.3621 123.966 39.642C124.624 41.0394 125.063 42.2896 124.843 42.4367C124.697 42.5838 121.699 43.9076 118.189 45.3785C111.9 47.9526 110.364 47.9526 111.388 45.305C112.046 43.4664 107.366 31.7727 105.757 31.3314C102.759 30.596 104.441 28.6103 110.145 26.2568C113.216 25.0066 116.141 23.977 116.653 23.9034C117.092 23.8299 117.823 24.786 118.189 26.0362ZM244.115 29.7135C247.113 31.2579 248.064 33.3907 245.723 33.3907C244.846 33.3907 243.53 35.3029 241.336 39.642L238.264 45.8933L240.605 47.07C242.725 48.1732 242.945 48.1732 243.822 47.07C244.7 45.8198 247.04 46.1875 247.04 47.5113C247.04 48.7616 244.846 52.5124 244.115 52.5124C242.652 52.5124 231.683 46.6288 231.683 45.8198C231.683 45.3785 232.341 44.8637 233.219 44.6431C234.901 44.2018 241.628 31.4785 240.385 31.0373C239.727 30.8166 240.166 28.2426 240.897 28.2426C241.116 28.2426 242.579 28.9045 244.115 29.7135ZM102.466 34.8616C104.953 36.8473 107.366 41.9955 107.366 45.305C107.366 48.8351 104.953 51.6299 99.4681 54.5716C96.2505 56.3367 95.0073 56.7044 94.3491 56.0425C93.7641 55.4542 93.7641 54.9394 94.276 54.2775C95.2267 53.1743 88.4258 40.5981 87.1095 41.0394C86.3051 41.4071 85.0619 39.4214 85.7201 38.7595C85.8663 38.6124 88.0602 37.3621 90.6196 35.9648C96.0311 33.023 99.6875 32.6553 102.466 34.8616ZM262.616 40.3039C266.419 41.9219 267.881 44.0547 267.881 48.0997C267.881 54.7187 261.373 61.2642 255.888 60.1611C252.159 59.4256 248.502 55.4542 248.502 52.2918C248.502 48.7616 249.38 46.5552 252.232 43.3193C255.815 39.2743 258.375 38.4653 262.616 40.3039ZM86.5976 47.732C90.5465 51.8505 91.7897 55.7484 90.254 59.4256C88.9377 62.6616 85.2082 65.015 81.4787 65.015C78.9923 65.015 78.1148 64.5002 75.4822 61.7055C71.5333 57.6605 70.2901 53.6891 71.8258 50.0854C73.3615 46.4082 76.2135 44.4224 80.1624 44.4224C83.1606 44.4224 83.8187 44.7902 86.5976 47.732ZM278.997 52.8066C278.85 53.2478 278.119 53.6891 277.315 53.8362C276.364 53.9833 274.828 55.8219 273.146 58.7637C271.684 61.3378 270.441 63.6912 270.441 63.9118C270.441 64.1325 272.781 62.588 275.56 60.6023C278.412 58.5431 280.898 56.9251 281.264 56.9251C281.556 56.9251 282.36 57.4399 283.165 58.0283C284.481 58.9843 284.408 59.2785 281.41 64.6473C279.728 67.7362 278.485 70.3838 278.631 70.5309C279.216 71.1192 287.626 64.0589 287.406 63.1764C287.041 61.2642 288.723 61.2642 291.282 63.2499C293.33 64.7944 293.695 65.3827 293.037 66.2653C292.525 66.8536 291.721 67.1478 291.209 66.9272C290.77 66.7801 287.114 68.8394 283.165 71.6341C276.364 76.488 275.998 76.6351 274.316 75.5319C273.439 74.9436 272.634 74.2817 272.634 74.061C272.634 73.9139 273.951 71.3399 275.633 68.3245C277.241 65.3092 278.412 62.8087 278.119 62.8087C277.9 62.8087 275.56 64.3531 272.927 66.1917C268.32 69.5013 268.174 69.5748 266.419 68.3981C265.395 67.7362 264.59 67.0743 264.59 66.9272C264.59 66.8536 266.565 63.1029 268.905 58.7637C271.318 54.351 273.073 50.4531 272.854 50.0854C272.708 49.7912 272.708 48.9822 272.927 48.3939C273.293 47.5113 273.951 47.732 276.291 49.6441C277.9 50.9679 279.143 52.3653 278.997 52.8066ZM192.56 49.1293C214.937 53.1007 232.926 60.7494 249.526 73.3256C255.742 78.106 255.742 78.4737 249.745 79.2092C246.089 79.724 241.555 81.7833 237.826 84.578L235.632 86.2695L231.244 84.5044C228.831 83.4748 225.394 82.6658 223.566 82.6658C220.056 82.6658 218.227 83.6954 210.988 89.5055L208.501 91.4912L203.309 89.3584C190.439 83.9896 168.866 82.151 154.899 85.1663C119.359 92.815 92.2284 119.218 84.55 153.637C82.6487 162.315 82.2099 178.495 83.5994 187.173C87.7676 212.105 102.32 234.683 123.235 248.436C127.257 251.084 130.767 253.29 131.059 253.29C131.279 253.29 133.546 254.32 136.032 255.57C141.078 257.997 148.902 260.644 152.339 261.086C153.583 261.233 156.654 261.674 159.287 262.115C167.842 263.586 184.954 262.998 191.609 260.939C192.267 260.718 193.437 260.497 194.168 260.35C197.094 259.762 204.991 256.82 210.842 254.099C225.979 247.039 243.383 230.344 250.33 216.15C251.135 214.532 252.012 213.061 252.305 212.84C252.524 212.62 253.036 211.443 253.329 210.266C253.548 209.016 254.206 207.545 254.718 206.957C255.742 205.633 259.106 194.086 259.837 189.306C261.812 176.73 261.592 165.404 259.179 154.666C256.619 143.414 251.062 129.735 247.186 125.101C246.162 123.998 246.235 123.63 247.479 122.159C250.55 118.556 251.72 115.54 251.647 110.981C251.574 106.568 249.38 99.5811 247.405 97.3748C246.089 95.9039 246.82 94.8742 250.038 93.4769C253.841 91.8589 259.471 92.3002 262.47 94.433C267.223 97.816 268.686 100.758 269.344 108.112C270.294 118.629 273.146 126.204 278.412 132.088C282.141 136.28 285.505 138.486 291.209 140.399C295.523 141.869 295.597 141.943 296.547 145.547C300.204 159.814 300.715 185.261 297.498 199.97C292.086 225.196 280.605 246.744 263.128 264.395C239.946 287.782 210.842 300.506 178.3 301.609C152.851 302.491 129.889 296.681 108.902 284.032C78.261 265.498 57.2003 235.639 49.4487 199.602C47.9862 192.836 47.8399 189.821 47.8399 174.965C47.8399 160.109 47.9862 157.093 49.4487 150.327C54.2752 127.969 64.2937 107.524 78.261 91.4912C98.1518 68.6187 123.527 54.4981 154.168 49.2029C161.846 47.8791 185.247 47.8055 192.56 49.1293ZM332.16 60.6023C332.38 66.0446 332.599 71.2663 332.599 72.1489C332.599 75.1642 337.133 75.8997 342.618 73.7669C343.568 73.3991 344.3 73.3256 344.3 73.5462C344.3 73.6933 345.323 73.3991 346.493 72.7372C347.737 72.0753 348.687 71.7076 348.687 71.8547C348.687 72.0753 346.859 74.1346 344.592 76.488C336.621 84.8721 336.621 85.9753 344.665 88.4758C347.663 89.3584 350.15 90.388 350.15 90.7557C350.15 91.0499 348.687 91.4912 346.932 91.7118C340.278 92.6679 338.303 94.7272 340.278 98.5515C340.863 99.7282 341.374 100.978 341.374 101.346C341.374 101.714 341.886 102.67 342.618 103.405C343.641 104.582 343.641 104.729 342.691 104.729C342.033 104.729 341.374 104.288 341.155 103.7C340.936 103.185 339.327 102.376 337.499 101.935C335.744 101.42 333.769 100.905 333.111 100.611C331.648 100.096 330.917 103.405 330.917 110.245C330.99 113.04 330.844 115.614 330.625 115.982C330.478 116.276 329.455 114.952 328.504 113.113C321.923 100.611 321.996 100.758 319.363 102.302C318.193 103.038 317.242 103.847 317.242 104.141C317.242 104.435 316.877 104.729 316.365 104.729C315.926 104.729 314.902 105.318 314.171 105.98C312.197 107.745 311.246 106.421 312.197 103.038C313.074 99.8017 312.197 98.1102 309.637 98.1102C308.76 98.1102 307.37 97.6689 306.639 97.0806C305.323 96.1245 305.323 96.051 306.858 95.6097C307.663 95.3155 308.613 94.3594 308.906 93.5504C309.198 92.6679 310.003 91.4176 310.807 90.7557C313.074 88.9171 311.758 87.152 307.004 85.8282C302.617 84.6515 301.666 82.8864 305.396 83.0335C308.613 83.1071 313.805 82.0039 314.39 81.0478C314.683 80.6065 314.317 79.0621 313.513 77.5912C311.758 74.2081 311.758 73.105 313.586 73.105C314.39 73.105 315.049 73.3991 315.049 73.8404C315.049 74.2081 315.56 74.5759 316.145 74.5759C316.73 74.5759 317.242 74.87 317.242 75.2378C317.242 76.2674 319.802 76.6351 321.045 75.7526C321.703 75.3113 322.8 72.9579 323.531 70.5309C324.263 68.1039 325.286 65.6769 325.725 65.2357C326.237 64.7208 326.822 62.8822 327.115 61.1907C327.626 58.0283 330.917 49.7912 331.429 50.3796C331.648 50.5267 331.941 55.16 332.16 60.6023ZM67.1456 57.2928C68.5351 58.7637 68.6813 59.2785 67.8769 60.2346C66.9994 61.2642 66.78 61.2642 65.5368 60.0875C64.1474 58.8372 64.0011 58.8372 62.3192 60.823C61.3685 61.9997 60.5641 63.6912 60.5641 64.7208C60.5641 66.7066 64.9518 72.0753 67.2919 72.7372C70.6558 73.8404 74.9703 70.0161 73.069 67.6626C72.484 66.9272 72.5571 66.4124 73.3615 65.7505C74.3853 64.9415 74.824 65.0886 76.4328 66.7066C78.261 68.5452 78.3342 68.7658 77.3104 70.6044C75.8478 73.3991 71.0214 76.7822 68.4619 76.7822C61.7342 76.7822 55.2258 67.9568 57.639 62.0732C58.6628 59.6462 62.9774 55.4542 64.513 55.4542C65.0249 55.4542 66.195 56.2632 67.1456 57.2928ZM263.347 84.0631C263.786 84.5044 264.59 84.8721 265.175 84.8721C266.053 84.8721 270.953 88.3287 273 90.388C274.316 91.7118 277.607 98.4044 278.046 100.684C278.265 101.861 278.631 104.729 278.85 106.936C279.435 113.408 279.874 115.099 282.068 119.806C284.335 124.439 287.26 128.264 288.649 128.264C289.088 128.264 289.454 128.558 289.454 128.852C289.454 129.587 297.425 131.941 299.838 131.941C303.933 131.941 313.586 125.175 313.586 122.38C313.586 122.012 313.878 121.645 314.317 121.645C314.683 121.645 315.853 118.776 316.95 115.173C318.047 111.642 319.217 108.554 319.656 108.259C320.094 108.039 321.045 108.995 321.776 110.392C323.019 112.672 323.093 113.481 322.361 116.496C321.923 118.482 321.045 120.688 320.533 121.424C319.948 122.159 319.436 123.189 319.436 123.63C319.436 125.763 312.562 132.75 308.54 134.809C305.615 136.354 300.862 137.383 297.352 137.31C294.5 137.236 288.723 135.545 288.723 134.809C288.723 134.441 288.284 134.147 287.772 134.147C285.944 134.147 280.093 127.822 277.9 123.483C274.975 117.747 274.17 114.511 273.731 107.671C273.293 99.434 271.464 96.051 264.883 90.7557C262.835 89.0642 258.082 87.961 254.353 88.1817C252.524 88.2552 250.989 88.4023 250.916 88.4758C250.769 88.4758 250.477 88.5494 250.184 88.6229C246.82 89.1377 239.434 95.4626 238.045 99.0663C237.241 101.126 233.804 100.464 232.999 98.1102C232.487 96.6393 236.071 91.4912 239.873 88.2552C244.7 84.0631 249.234 82.5922 256.4 82.96C259.764 83.0335 262.835 83.5483 263.347 84.0631ZM228.685 87.8875C230.367 88.4023 231.683 89.2113 231.683 89.7996C231.683 90.4615 231.171 90.6822 230.44 90.5351C226.857 89.5055 222.103 89.2848 220.714 90.0203C219.178 90.8293 218.812 90.3145 219.836 88.77C220.568 87.6668 223.712 86.343 224.809 86.7108C225.321 86.8578 227.003 87.3727 228.685 87.8875ZM183.784 88.6965C186.198 89.0642 189.196 89.5055 190.366 89.6526C195.997 90.3145 205.649 94.433 204.479 95.6097C204.187 95.8303 200.823 95.3155 196.801 94.433C192.852 93.5504 188.026 92.5208 185.978 92.2266C182.249 91.5647 163.089 91.7854 160.383 92.3737C159.579 92.5943 157.678 92.9621 156.142 93.2563C149.049 94.5801 132.302 101.273 128.939 104.214C128.28 104.729 126.672 105.832 122.357 108.554C121.553 109.068 120.163 110.245 119.286 111.128C118.408 112.084 117.457 112.819 117.238 112.819C116.872 112.819 110.51 119.291 106.488 123.851C105.318 125.101 104.441 126.425 104.441 126.793C104.441 127.234 104.148 127.528 103.709 127.528C103.344 127.528 102.978 128.043 102.978 128.631C102.978 129.22 102.686 129.735 102.247 129.735C101.881 129.735 101.516 130.249 101.516 130.838C101.516 131.426 101.296 131.941 100.931 131.941C100.638 131.941 99.7606 133.412 98.9562 135.25C98.1518 137.089 97.2742 138.56 96.9817 138.56C96.7623 138.56 96.3236 139.516 96.0311 140.766C95.7386 141.943 95.2998 142.973 95.0073 142.973C94.276 142.973 88.6452 162.683 87.6945 168.346C87.0364 172.464 87.0364 172.243 87.3289 165.845C87.4751 162.094 87.8408 158.638 88.0602 158.27C88.2795 157.902 88.7183 155.622 89.0839 153.269C89.4496 150.842 90.5465 147.091 91.5703 144.885C92.5941 142.678 93.4716 140.546 93.4716 140.104C93.4716 139.663 94.7879 136.795 96.3967 133.706C101.881 123.115 110.73 112.599 120.163 105.391C129.45 98.2573 145.246 90.9764 154.533 89.579C156.142 89.3584 158.628 88.9171 160.018 88.5494C163.455 87.7404 178.3 87.8139 183.784 88.6965ZM215.595 92.815C215.595 93.7711 204.626 104.95 204.114 104.509C203.529 103.847 206.673 99.6547 210.695 95.6832C214.132 92.3737 215.595 91.4912 215.595 92.815ZM174.936 103.185C178.812 105.612 180.494 107.671 180.494 109.804C180.42 113.922 177.349 115.687 166.234 117.967C161.846 118.85 157.897 119.806 157.458 120.1C157.093 120.394 155.484 121.056 153.948 121.571C151.096 122.527 139.908 127.896 135.154 130.544C131.352 132.676 127.33 132.382 125.209 129.882C123.088 127.455 123.015 125.248 124.917 121.35C126.525 118.041 131.644 112.084 132.887 112.084C133.326 112.084 133.692 111.79 133.692 111.495C133.692 110.907 144.88 104.435 146.05 104.288C146.27 104.288 147.805 103.847 149.414 103.405C155.045 101.714 158.994 101.273 165.502 101.346C171.06 101.42 172.596 101.714 174.936 103.185ZM286.529 117.673C288.284 121.792 288.357 122.527 286.821 120.321C285.724 118.703 284.189 114.29 284.701 114.29C284.847 114.29 285.651 115.835 286.529 117.673ZM120.309 141.796C122.357 143.708 123.454 149.15 122.503 152.166C120.748 157.608 115.849 161.212 111.607 160.035C105.976 158.564 104.221 149.665 108.39 144.149C112.046 139.295 116.799 138.413 120.309 141.796ZM279.801 266.013C279.728 266.896 281.702 270.867 284.262 274.912C288.576 281.825 288.723 282.193 287.552 283.517C285.944 285.282 285.212 285.282 282.141 283.223C280.752 282.267 278.338 280.722 276.803 279.84L274.024 278.148L277.68 283.885L281.337 289.695L279.801 291.313C278.997 292.195 278.046 292.857 277.827 292.71C277.607 292.563 274.243 290.504 270.441 288.224C266.638 285.87 262.835 283.958 262.104 283.885C259.837 283.737 259.983 282.414 262.689 279.84C265.249 277.339 267.223 277.339 266.419 279.766C266.126 280.722 267.15 281.752 270.806 284.032C273.439 285.723 275.56 286.9 275.56 286.753C275.56 286.532 274.097 284.032 272.269 281.09C269.197 276.162 269.051 275.721 270.221 274.471C270.879 273.735 271.684 273.147 272.049 273.147C272.415 273.147 274.828 274.544 277.461 276.162C280.093 277.854 282.36 279.104 282.507 278.884C283.165 278.222 276.949 269.838 275.998 270.058C273.804 270.426 274.024 268.514 276.291 266.16C278.923 263.439 280.02 263.439 279.801 266.013ZM76.0672 271.603C79.358 275.059 79.4311 276.015 77.0179 278.295C75.5553 279.693 75.0434 279.84 74.0928 279.031C73.069 278.148 73.069 277.927 74.1659 276.677C75.3359 275.427 75.3359 275.206 73.7271 273.515C71.0214 270.647 68.3157 271.088 64.513 274.912C60.8567 278.589 60.5641 280.281 63.0505 283.223C64.5862 284.988 65.0249 285.135 66.3412 284.399C67.5113 283.664 67.95 283.737 68.6813 284.62C69.4126 285.576 69.2663 286.091 67.6575 287.635C65.8293 289.548 65.7562 289.548 63.7086 288.224C59.2478 285.429 56.8346 280.575 58.0047 276.898C58.2241 276.015 59.321 274.324 60.4179 273.073C65.4637 266.969 71.3139 266.381 76.0672 271.603ZM86.817 281.531C89.5958 283.002 91.2778 285.797 91.2778 288.959C91.2778 292.342 89.8152 295.137 86.5245 298.005C81.9174 302.124 78.1879 302.05 73.8734 297.711C71.5333 295.358 71.387 294.916 71.6795 291.68C72.484 283.59 80.4549 278.295 86.817 281.531ZM261.592 286.679C264.517 288.224 267.662 293.151 268.027 297.049C268.393 300.138 268.247 300.506 265.468 303.3C263.055 305.727 262.104 306.242 259.764 306.242C252.451 306.242 246.455 297.196 249.526 290.724C251.647 286.164 257.058 284.326 261.592 286.679ZM101.077 292.269C107 296.019 108.682 299.108 107.366 303.595C106.854 305.213 105.245 307.787 103.709 309.331C99.8337 313.303 96.9086 313.303 89.9615 309.405C86.7439 307.64 85.4276 306.463 85.5738 305.654C85.7201 304.992 86.3782 304.404 87.1095 304.404C88.572 304.404 95.9579 292.563 94.9342 291.901C94.1297 291.386 94.7879 289.327 95.7386 289.327C96.1042 289.327 98.5174 290.651 101.077 292.269ZM238.849 297.564C239.434 298.152 239.434 298.667 238.923 299.329C238.411 299.991 239.069 301.903 241.336 306.169C243.091 309.405 244.846 312.126 245.212 312.126C246.967 312.126 249.307 309.772 248.868 308.449C248.575 307.566 248.868 306.831 249.745 306.316C250.842 305.727 251.354 306.095 252.671 308.449L254.279 311.17L247.99 314.553C241.555 318.083 240.019 318.23 240.751 315.582C241.19 313.817 234.901 301.535 233.95 302.197C233.584 302.344 232.853 301.977 232.341 301.315C231.756 300.579 231.61 299.991 232.049 299.844C232.487 299.697 233.804 298.961 234.974 298.226C237.679 296.461 237.753 296.461 238.849 297.564ZM118.554 301.535C121.845 303.006 124.624 304.257 124.77 304.404C124.917 304.551 124.478 305.654 123.893 306.831C123.015 308.522 122.357 308.963 121.26 308.669C120.309 308.449 119.871 307.86 120.09 307.272C120.309 306.683 119.651 305.801 118.335 305.139C115.556 303.742 115.702 303.668 114.752 306.242C114.02 308.375 114.167 308.522 116.946 309.919C119.651 311.39 120.602 313.008 119.066 313.964C118.701 314.185 117.384 313.891 116.214 313.229C113.07 311.611 112.192 311.832 111.242 314.332C110.437 316.465 110.51 316.612 112.704 317.715C114.752 318.818 115.044 318.818 115.776 317.715C116.507 316.833 116.872 316.759 117.896 317.495C118.92 318.23 118.92 318.745 118.189 320.731C117.677 322.054 117.092 323.158 116.799 323.158C116.507 323.158 113.435 321.834 109.998 320.289C105.391 318.083 103.856 317.053 104.148 316.244C104.368 315.656 105.099 315.068 105.684 314.921C107.073 314.626 112.558 302.491 111.754 301.535C111.169 300.947 111.534 298.888 112.265 298.888C112.485 298.888 115.264 300.064 118.554 301.535ZM230.513 303.668C232.122 305.286 232.56 307.492 231.683 309.184C231.025 310.434 231.098 310.655 232.341 310.655C234.169 310.655 236.802 313.964 236.802 316.318C236.802 318.818 234.242 321.025 228.538 323.525C224.882 325.07 223.346 325.364 222.761 324.776C222.176 324.187 222.176 323.672 222.761 322.937C223.858 321.613 218.886 308.375 217.423 308.89C216.911 309.11 216.326 308.596 216.18 307.86C215.814 306.683 216.546 306.095 220.275 304.551C225.467 302.418 228.904 302.124 230.513 303.668ZM139.323 308.816C146.343 310.876 148.902 317.053 145.392 323.893C143.491 327.57 141.37 329.041 137.714 329.041C134.935 329.041 127.403 327.35 126.598 326.541C126.087 326.026 127.695 323.452 128.28 323.893C128.573 324.114 129.597 321.172 130.547 317.348C131.791 312.567 132.083 310.287 131.498 309.919C131.059 309.625 130.913 308.89 131.205 308.154C131.717 306.757 132.083 306.831 139.323 308.816ZM210.695 310.802C210.988 313.155 210.33 314.332 208.501 314.332C207.99 314.332 207.551 313.817 207.551 313.229C207.551 312.052 206.893 311.832 205.649 312.714C205.138 313.082 205.357 315.362 206.308 319.995C207.551 325.732 207.99 326.835 209.16 326.835C210.11 326.835 210.476 327.276 210.33 328.085C210.037 329.777 202.505 331.542 201.92 329.997C201.701 329.409 202.066 328.6 202.724 328.085C203.821 327.276 203.821 326.688 202.505 320.731C201.701 317.127 200.896 314.038 200.677 313.817C199.872 313.008 198.044 314.332 198.483 315.435C198.849 316.244 198.483 316.539 197.167 316.539C195.923 316.539 195.192 315.95 194.68 314.479L193.949 312.494L192.998 315.215C191.755 318.965 190 318.892 190 315.141C190 310.14 191.243 308.89 194.242 310.728C195.119 311.243 197.094 311.096 201.701 310.067C210.257 308.007 210.257 308.007 210.695 310.802ZM164.186 314.7C166.746 317.274 166.746 317.348 166.453 322.422C166.161 328.379 164.552 331.1 160.457 332.645C156.727 334.116 152.413 332.792 150.438 329.556C149.268 327.644 149.049 326.246 149.195 322.128C149.487 317.421 149.634 316.98 152.193 314.626C154.46 312.567 155.411 312.126 158.263 312.126C161.115 312.126 161.992 312.494 164.186 314.7ZM178.592 319.48C180.932 323.158 183.053 326.099 183.272 326.099C184.15 326.099 182.761 316.539 181.664 315.435C179.689 313.45 180.347 312.861 184.516 312.861C187.587 312.861 188.538 313.082 188.538 313.964C188.538 314.553 188.245 315.068 187.806 315.068C187.368 315.068 187.075 318.598 187.075 324.261C187.075 333.454 187.075 333.454 185.32 333.454C184.004 333.454 182.687 332.056 179.104 326.614L174.643 319.848V325.143C174.643 329.409 174.863 330.512 175.74 330.512C176.325 330.512 176.837 331.174 176.837 331.983C176.837 333.086 176.325 333.454 174.863 333.454C173.693 333.454 172.084 333.674 171.206 333.895C169.817 334.263 169.524 334.042 169.524 332.792C169.524 331.983 169.89 331.247 170.329 331.247C171.499 331.247 170.841 316.391 169.671 315.95C168.501 315.582 168.574 313.817 169.744 313.376C170.183 313.155 171.426 312.935 172.45 312.935C173.985 312.861 175.009 314.038 178.592 319.48Z" fill="black"/>
</svg>
