<svg version="1.1" id="Layer_1" xmlns="http://www.w3.org/2000/svg" xmlns:xlink="http://www.w3.org/1999/xlink" x="0px" y="0px"
	 width="100%" viewBox="0 0 1024 576" enable-background="new 0 0 1024 576" xml:space="preserve">
<path fill="#000000" opacity="1.000000" stroke="none" 
	d="
M462.471344,137.292725 
	C503.386688,123.381485 542.443542,126.500626 578.697327,149.621841 
	C613.419373,171.766205 632.370605,204.262299 636.404663,245.264130 
	C640.384277,285.711853 628.226685,320.917084 599.166077,349.112976 
	C567.831970,379.514709 529.466309,390.590881 486.540405,383.444885 
	C432.000427,374.365479 393.016693,336.423187 382.285797,282.591248 
	C370.125549,221.588943 402.434113,159.933685 462.471344,137.292725 
M576.717773,331.225983 
	C603.065369,306.281036 613.374695,275.575317 607.219116,240.138107 
	C597.229187,182.626694 542.553406,147.060364 485.612244,160.087997 
	C444.259613,169.549133 414.388824,201.729401 409.259003,244.310303 
	C404.239716,285.973297 419.477356,319.170013 454.903839,342.074127 
	C489.742676,364.598297 541.648865,362.585846 576.717773,331.225983 
z"/>
<path fill="#000000" opacity="1.000000" stroke="none" 
	d="
M739.360352,371.741943 
	C697.057983,350.955200 672.887268,317.129791 668.074585,270.976501 
	C660.937378,202.530823 706.236023,146.441513 769.068726,134.580338 
	C804.988586,127.799583 838.276917,133.807388 868.181396,155.514297 
	C875.487305,160.817490 875.639709,162.370377 870.748535,169.755066 
	C868.632263,172.950119 866.603088,176.209106 864.355469,179.309357 
	C861.356750,183.445679 859.067383,183.859360 855.227356,180.750015 
	C841.960266,170.007141 826.907227,163.403473 810.036804,160.928772 
	C756.819702,153.122391 708.299988,185.809418 697.385925,236.941345 
	C685.559326,292.348877 719.550415,343.793549 775.036011,355.148102 
	C793.942993,359.017181 817.808411,356.187500 833.246765,347.949127 
	C824.655640,343.702972 816.467346,339.655945 808.279114,335.608917 
	C808.254089,335.062744 808.229065,334.516571 808.204102,333.970398 
	C837.871460,318.828430 867.538818,303.686462 897.206177,288.544495 
	C897.720947,288.825287 898.235718,289.106079 898.750488,289.386871 
	C892.926208,322.216125 887.101868,355.045410 881.263611,387.953217 
	C877.629333,387.499756 876.518799,384.986328 874.857910,383.278107 
	C870.909485,379.217133 866.963867,375.132935 863.321777,370.801941 
	C860.972290,368.008087 858.903381,367.795074 855.634155,369.355194 
	C838.948303,377.318176 821.389526,382.074402 802.883850,383.437317 
	C780.786987,385.064758 759.825867,380.875366 739.360352,371.741943 
M873.113953,321.667145 
	C867.781372,328.060486 862.430664,334.438873 857.133606,340.861481 
	C856.223633,341.964844 854.881714,343.224915 856.613525,344.691528 
	C857.959717,345.831696 859.025269,345.251434 859.905090,343.922943 
	C865.691040,335.186737 871.493530,326.461395 877.290649,317.732544 
	C877.074768,317.584686 876.858887,317.436859 876.643066,317.289001 
	C875.602112,318.566986 874.561157,319.844940 873.113953,321.667145 
z"/>
<path fill="#000000" opacity="1.000000" stroke="none" 
	d="
M230.336945,218.000061 
	C230.342178,262.477631 230.436676,306.455627 230.233047,350.432220 
	C230.208908,355.642242 231.836105,356.807983 236.772430,356.782990 
	C274.585510,356.591461 312.399994,356.672028 350.214050,356.679993 
	C357.711182,356.681580 358.298828,357.269287 358.324799,364.545868 
	C358.338470,368.377197 358.240784,372.210999 358.348694,376.039307 
	C358.468811,380.301331 356.252960,382.088776 352.262268,382.196198 
	C351.263367,382.223083 350.263519,382.222168 349.264130,382.222107 
	C303.454163,382.220215 257.644165,382.220734 211.834198,382.210632 
	C202.754883,382.208618 201.885834,381.306427 201.886246,372.180939 
	C201.889694,296.386261 201.890366,220.591583 201.892990,144.796906 
	C201.893066,142.797974 201.932358,140.798706 201.907028,138.800171 
	C201.847336,134.090714 204.029785,131.670303 208.862793,131.742264 
	C213.692703,131.814194 218.526047,131.697052 223.354599,131.807007 
	C229.065506,131.937057 230.315262,133.229477 230.321762,139.040619 
	C230.351028,165.193741 230.335785,191.346909 230.336945,218.000061 
z"/>
<path fill="#000000" opacity="1.000000" stroke="none" 
	d="
M111.742874,380.201843 
	C103.100670,370.029480 108.211906,356.998810 115.736664,352.582336 
	C125.123795,347.072815 136.830383,350.152039 141.851822,359.715271 
	C145.895554,367.416473 143.726059,377.338135 136.851837,382.581512 
	C129.234253,388.391937 119.873444,387.605774 111.742874,380.201843 
z"/>
</svg>